HIERARCHY
ROOT Hips
{
  OFFSET 0 0 0
  CHANNELS 6 Xposition Yposition Zposition Zrotation Yrotation Xrotation
  JOINT LeftThigh
  {
    OFFSET 8.409438 0 -5.917753
    CHANNELS 3 Zrotation Yrotation Xrotation
    JOINT LeftLeg
    {
      OFFSET 0 0 -42.358652
      CHANNELS 3 Zrotation Yrotation Xrotation
      JOINT LeftFoot
      {
        OFFSET 0 0 -39.357303
        CHANNELS 3 Zrotation Yrotation Xrotation
      }
    }
  }
  JOINT RightThigh
  {
    OFFSET -8.409438 0 -5.917753
    CHANNELS 3 Zrotation Yrotation Xrotation
    JOINT RightLeg
    {
      OFFSET 0 0 -42.358652
      CHANNELS 3 Zrotation Yrotation Xrotation
      JOINT RightFoot
      {
        OFFSET 0 0 -39.357303
        CHANNELS 3 Zrotation Yrotation Xrotation
      }
    }
  }
  JOINT SpineLow
  {
    OFFSET 0 0 4.719101
    CHANNELS 3 Zrotation Yrotation Xrotation
    JOINT SpineMid
    {
      OFFSET 0 0 12.899191
      CHANNELS 3 Zrotation Yrotation Xrotation
      JOINT Chest
      {
        OFFSET 0 0 12.899191
        CHANNELS 3 Zrotation Yrotation Xrotation
        JOINT LeftShoulder
        {
          OFFSET 7.550562 1.41573 9.438202
          CHANNELS 3 Zrotation Yrotation Xrotation
          JOINT LeftArm
          {
            OFFSET 9.155056 0 4.247191
            CHANNELS 3 Zrotation Yrotation Xrotation
            JOINT LeftForearm
            {
              OFFSET 0 0 25.771955
              CHANNELS 3 Zrotation Yrotation Xrotation
              JOINT LeftHand
              {
                OFFSET 0 0 25.197169
                CHANNELS 3 Zrotation Yrotation Xrotation
              }
            }
          }
        }
        JOINT RightShoulder
        {
          OFFSET -7.550562 1.41573 9.438202
          CHANNELS 3 Zrotation Yrotation Xrotation
          JOINT RightArm
          {
            OFFSET -9.155056 0 4.247191
            CHANNELS 3 Zrotation Yrotation Xrotation
            JOINT RightForearm
            {
              OFFSET 0 0 -25.771955
              CHANNELS 3 Zrotation Yrotation Xrotation
              JOINT RightHand
              {
                OFFSET 0 0 -25.197169
                CHANNELS 3 Zrotation Yrotation Xrotation
              }
            }
          }
        }
        JOINT Neck
        {
          OFFSET 0 0 15.101124
          CHANNELS 3 Zrotation Yrotation Xrotation
          JOINT Head
          {
            OFFSET 0 0 11.325843
            CHANNELS 3 Zrotation Yrotation Xrotation
            End Site
            {
              OFFSET 0 0 14.157303
            }
          }
        }
      }
    }
  }
}
MOTION
Frames: 16
Frame Time: 0.0
0.0  89.887642  0.0  -4.8923  17.46005  -122.58821  -0.96502  -8.276748  8.079901  -14.305599  8.58274  32.336545  -9.490999  -0.788494  0.647051  -4.906051  24.525481  -76.07266  -27.973489  -5.796649  13.278895  -1.425511  -8.02824  -1.943616  -0.780897  -2.214725  4.25897  -2.523138  -5.893708  11.740618  -2.523138  -5.893708  11.740618  -12.922238  25.586542  11.467931  121.84356  41.800569  -159.58413  -20.963362  -6.346821  78.781694  68.111492  -11.386729  51.392537  -3.393943  13.653418  28.665496  -2.381398  60.58938  -64.114373  -20.703576  -15.00576  -63.845849  80.558644  15.125959  -7.601912  -37.627577  -0.275449  0.146441  -28.220564  -0.216603  0.093255  
0.0  89.887642  0.0  -3.862743  15.373424  -123.039743  3.203013  -9.758577  9.258754  -15.284324  9.046989  31.704155  -10.241919  -0.616442  0.471903  -3.837256  28.523408  -78.378092  -38.749547  -5.441435  13.980212  -1.121653  -7.779701  -0.168435  -0.212113  -2.104521  4.468544  -0.96846  -5.690604  12.260765  -0.96846  -5.690604  12.260766  -13.823358  24.530166  10.464754  119.14125  42.003472  -160.017621  -22.221686  -7.57329  77.126509  66.792745  -12.212701  50.25163  -4.208611  13.10161  27.466463  -0.716188  60.361657  -61.667315  -20.52898  -15.032497  -64.321445  80.750264  15.130317  -7.719616  -38.300603  -0.857857  0.63802  -28.72406  -0.686689  0.426616  
0.0  89.887642  0.0  -2.83879  13.398238  -123.560967  6.782005  -11.708865  10.557794  -17.81614  10.640489  30.720464  -9.823086  -0.227633  0.125164  -3.433854  21.920133  -76.697786  -38.392951  -3.810118  13.898753  2.124662  -6.005558  0.626772  0.366223  -1.972705  4.690629  0.615655  -5.43972  12.817832  0.615655  -5.43972  12.817833  -14.914323  23.323683  9.545312  118.923216  41.926786  -160.730091  -22.343124  -6.942742  77.821072  66.176693  -12.089867  49.665981  -4.726185  12.459028  26.807005  -1.256561  60.131671  -61.46872  -20.513028  -15.00928  -64.281006  80.845059  14.881413  -7.792632  -38.85351  -1.378729  0.924092  -29.136728  -1.098232  0.608092  
0.0  89.887642  0.0  -2.424536  13.113173  -123.78199  6.190931  -12.07474  10.248472  -18.916419  12.691971  31.382444  -8.450916  0.098803  -0.019626  -4.754976  13.607194  -78.993671  -30.774997  1.086169  18.792972  4.052848  -6.089287  1.406291  0.548867  -1.809983  4.775844  1.138542  -5.033242  13.035623  1.138542  -5.033242  13.035623  -15.441154  22.118291  9.067644  119.283083  41.626661  -160.894734  -22.492446  -6.260664  78.785711  65.995369  -11.276411  49.979242  -4.358143  11.545159  27.131634  -3.689114  60.303587  -63.413184  -20.530534  -14.944312  -63.936782  80.74346  14.518368  -7.772408  -38.867878  -1.577542  1.018914  -29.146543  -1.254165  0.666765  
0.0  89.887642  0.0  -2.158828  13.739755  -124.652939  1.79839  -9.563455  10.480868  -16.794105  13.125171  33.125233  -6.993859  0.349623  0.291829  -6.956155  2.917252  -83.966262  -15.232233  4.992691  29.366239  2.521141  -5.652928  1.606303  0.414486  -1.591201  4.908975  0.806245  -4.412664  13.408819  0.806245  -4.412664  13.408818  -15.166966  20.711756  9.108418  120.228022  41.23858  -160.071619  -22.274008  -6.442591  79.351104  65.749268  -10.210707  50.911741  -3.899559  10.379058  27.769421  -6.122047  61.109811  -66.232615  -20.420396  -14.992713  -63.69809  80.623861  14.120255  -7.538977  -38.283636  -1.523186  0.912811  -28.708844  -1.205344  0.591682  
0.0  89.887642  0.0  -2.041438  13.786263  -125.816095  -0.941084  -7.035477  10.991162  -15.157189  12.54706  34.778296  -5.965923  0.553172  0.584175  -7.989176  -7.796589  -90.488423  0.712228  5.834591  43.870045  0.595027  -5.256502  1.821653  0.237099  -1.479094  4.996569  0.340314  -4.07198  13.658917  0.340314  -4.07198  13.658916  -14.470934  20.249059  10.03981  121.080773  41.539977  -159.198106  -22.181754  -7.090991  79.361981  65.638584  -9.369402  52.105768  -3.807154  9.485402  28.483  -7.114035  62.510845  -68.21768  -20.238086  -15.134859  -63.803367  80.627607  13.968261  -7.618128  -37.435579  -1.026957  0.722939  -28.074768  -0.818262  0.481293  
0.0  89.887642  0.0  -1.806324  13.300521  -126.905006  0.036056  -6.66116  11.812825  -15.162718  12.524098  35.687669  -6.094751  0.183708  0.838527  -6.582692  -13.027901  -93.376833  8.85097  7.094065  54.447313  0.129788  -4.545305  2.308574  0.063118  -1.506208  5.057744  -0.142878  -4.109543  13.837382  -0.142878  -4.109543  13.837381  -13.914244  21.138934  10.90073  121.458849  42.126615  -158.938821  -22.302303  -7.947552  78.969732  65.687056  -9.475995  52.9402  -3.582069  9.33419  28.928627  -6.647171  63.923272  -68.482738  -19.969209  -15.124221  -64.346879  80.883852  13.996052  -7.843132  -36.583458  -0.269504  0.346109  -27.437402  -0.223847  0.24446  
0.0  89.887642  0.0  -1.544184  12.926076  -127.479601  2.390745  -7.529594  12.845328  -15.476363  12.118494  35.785958  -7.893693  -0.414226  1.050974  -5.517754  -15.050873  -91.290215  12.60193  10.917012  60.720352  2.585704  -4.241218  2.433556  -0.174643  -1.531054  5.008769  -0.792452  -4.1282  13.718479  -0.792452  -4.1282  13.718478  -13.263523  22.326439  11.136949  121.595666  42.074359  -159.291503  -22.340836  -8.767464  78.565258  65.516547  -10.213727  53.018514  -3.034212  9.643793  29.190391  -3.843946  64.730439  -66.44148  -18.432884  -15.438989  -65.474634  82.675216  13.674218  -6.279687  -35.745666  0.406037  0.296752  -26.809342  0.288312  0.24737  
0.0  89.887642  0.0  -1.302517  12.067816  -127.716787  3.474632  -8.45723  13.895669  -15.010624  11.87972  35.384274  -9.442926  -0.652313  0.913243  -3.275531  -14.864238  -91.383321  14.581565  13.794485  69.541229  4.869158  -3.554193  1.892281  -0.424462  -1.504415  4.995989  -1.466364  -4.0043  13.697533  -1.466364  -4.004299  13.697532  -12.070334  23.40526  10.938463  121.821766  42.242454  -159.772289  -22.095933  -9.177584  78.246865  65.126028  -11.053249  52.623559  -1.972359  10.26552  28.819705  1.165554  64.534341  -62.71578  -18.131194  -14.532337  -66.132268  82.887891  13.773577  -6.779405  -34.689949  0.506872  0.558952  -26.017778  0.34971  0.449765  
0.0  89.887642  0.0  -0.936786  10.74026  -127.750816  3.214194  -8.568338  14.58574  -14.061476  12.146838  35.042001  -9.17904  -0.534265  0.83519  -0.071363  -12.540066  -95.166783  15.614768  15.525245  81.799987  7.186387  -3.232699  1.69214  -0.478957  -1.507497  4.894653  -1.609379  -4.004205  13.423567  -1.609379  -4.004205  13.423566  -11.574372  24.610552  11.149556  122.189754  42.591688  -160.185156  -21.873759  -9.25998  78.096579  64.584754  -11.646468  52.246057  -1.924469  11.011968  28.762408  7.411237  63.921134  -58.205328  -17.805584  -13.81448  -66.616853  82.973153  13.838699  -7.188093  -34.191847  0.675688  1.193051  -25.645019  0.441545  0.936144  
0.0  89.887642  0.0  -0.389235  9.171776  -127.424664  3.24694  -8.643059  14.567988  -13.994295  13.041958  34.85061  -8.054207  -0.254046  0.609545  1.631407  -9.48297  -99.593671  15.528811  14.821294  94.561734  9.276834  -2.639564  1.172009  -0.371919  -1.435296  4.713956  -1.292786  -3.833597  12.9203  -1.292786  -3.833597  12.9203  -11.881459  25.450223  11.655939  122.850692  43.103  -160.728401  -21.90742  -9.019253  78.356544  63.729148  -11.792249  51.950479  -2.624128  11.529335  28.834984  13.972269  62.698539  -53.808098  -17.211908  -13.411365  -66.817202  83.079657  13.74665  -7.335011  -33.994041  0.756974  2.102016  -25.498117  0.452271  1.624663  
0.0  89.887642  0.0  0.222  7.385682  -126.854771  4.1935  -9.110181  14.089405  -14.543961  14.05934  34.819101  -7.260657  -0.010494  0.286313  1.881023  -4.703596  -101.722777  11.842998  12.955753  104.506392  10.070792  -1.763354  0.892776  -0.173283  -1.312744  4.466745  -0.714495  -3.542198  12.229577  -0.714495  -3.542198  12.229577  -12.70105  25.908568  12.587168  123.922549  43.670452  -161.137275  -22.13949  -8.996634  78.937967  62.214415  -11.716953  51.864512  -3.667123  11.815903  28.969606  20.844022  61.218873  -49.184866  -16.613011  -13.194001  -66.825319  83.141862  13.513366  -7.238857  -33.853885  0.876752  3.127791  -25.395195  0.485781  2.403243  
0.0  89.887642  0.0  0.734931  5.562143  -126.076607  5.579282  -9.687717  13.276633  -14.619752  14.699398  34.962412  -7.047852  0.043695  0.214896  1.312909  -0.496036  -102.354878  6.92656  10.051213  112.362673  9.268034  -0.451694  1.438331  -0.018685  -1.181217  4.172138  -0.254564  -3.214472  11.41335  -0.254564  -3.214472  11.41335  -13.491324  26.217409  13.636452  125.364177  44.068263  -161.269737  -22.520155  -9.737302  80.155939  60.069227  -11.234511  51.967358  -4.587949  11.793843  28.819649  28.849348  60.510505  -42.908457  -16.977282  -13.114724  -66.88461  82.994604  13.420619  -7.077618  -33.45811  1.131849  4.108822  -25.101723  0.625814  3.154864  
0.0  89.887642  0.0  0.978207  3.837189  -125.295928  6.820819  -10.2821  12.271879  -13.461222  14.832037  35.691174  -7.721036  -0.215211  0.220696  0.489978  1.081932  -102.024375  4.101404  7.380441  119.266795  8.950575  1.083446  2.134393  0.051316  -1.066568  3.915481  -0.032625  -2.91487  10.706712  -0.032625  -2.91487  10.706712  -14.336509  26.322496  14.205778  126.99381  44.151676  -161.113198  -23.91201  -9.800146  83.208918  59.088957  -9.131334  52.118391  -5.127295  10.844257  28.412445  37.242792  60.560363  -35.361751  -18.064062  -12.482826  -66.815252  82.552381  13.454089  -7.159827  -32.783206  1.345622  4.90013  -24.598938  0.74854  3.760133  
0.0  89.887642  0.0  1.036349  2.105282  -124.307119  7.55778  -10.709422  10.912675  -11.61684  14.629158  36.684075  -8.496504  -0.404613  0.320647  0.322579  -0.426368  -99.756813  4.235844  5.348886  124.65427  9.487471  2.75455  2.280183  0.05806  -0.967908  3.686088  0.010937  -2.647454  10.078196  0.010937  -2.647454  10.078195  -15.187299  26.296816  14.374178  128.894453  44.313427  -160.527798  -24.586158  -8.620895  86.004185  59.1762  -7.841493  51.669693  -5.723523  10.457878  27.775703  44.607162  59.740305  -29.405104  -18.572271  -11.672341  -66.678734  82.232111  13.4273  -7.090894  -31.821293  1.39252  5.449764  -23.87947  0.762711  4.17323  
0.0  89.887642  0.0  1.07425  0.350981  -123.175337  8.051411  -10.991879  9.39621  -10.37574  14.553466  37.373292  -8.500922  -0.270291  0.405932  1.08775  -3.343826  -96.699224  6.136177  3.714429  129.540314  10.749652  4.005881  2.095789  0.051691  -0.846644  3.517355  0.017963  -2.316101  9.616154  0.017963  -2.316101  9.616154  -16.15127  25.989505  14.166546  131.069045  44.75448  -159.30247  -25.696004  -7.148201  88.142676  58.845582  -6.81091  51.91929  -6.381168  9.958459  27.049288  50.540253  58.567659  -25.139528  -18.293462  -11.019137  -66.538641  80.535503  13.77002  -9.669738  -30.698203  1.06669  5.76271  -23.035495  0.511706  4.388759  
